<mxfile host="www.draw.io" modified="2020-01-26T09:36:40.549Z" agent="Mozilla/5.0 (Windows NT 10.0; Win64; x64) AppleWebKit/537.36 (KHTML, like Gecko) Chrome/74.0.3729.131 Safari/537.36" etag="hljUORgwnX2dn0hKQLjK" version="12.5.8" type="github" pages="2">
  <diagram id="mVHMB5qIpjZtjiALzmEc" name="Page-1">
    <mxGraphModel dx="1209" dy="629" grid="1" gridSize="10" guides="1" tooltips="1" connect="1" arrows="1" fold="1" page="1" pageScale="1" pageWidth="827" pageHeight="1169" math="0" shadow="0">
      <root>
        <mxCell id="0"/>
        <mxCell id="1" parent="0"/>
        <mxCell id="49n-CD0r1zN0ge3w9h3Q-1" value="会员服务" style="rounded=1;whiteSpace=wrap;html=1;fontSize=14;" parent="1" vertex="1">
          <mxGeometry x="90" y="220" width="120" height="80" as="geometry"/>
        </mxCell>
        <mxCell id="49n-CD0r1zN0ge3w9h3Q-2" value="微信服务" style="rounded=1;whiteSpace=wrap;html=1;fontSize=14;" parent="1" vertex="1">
          <mxGeometry x="390" y="220" width="120" height="80" as="geometry"/>
        </mxCell>
        <mxCell id="49n-CD0r1zN0ge3w9h3Q-3" value="" style="endArrow=classic;html=1;entryX=0;entryY=0.5;entryDx=0;entryDy=0;exitX=1;exitY=0.5;exitDx=0;exitDy=0;fontSize=14;" parent="1" source="49n-CD0r1zN0ge3w9h3Q-1" target="49n-CD0r1zN0ge3w9h3Q-2" edge="1">
          <mxGeometry width="50" height="50" relative="1" as="geometry">
            <mxPoint x="210" y="290" as="sourcePoint"/>
            <mxPoint x="260" y="240" as="targetPoint"/>
          </mxGeometry>
        </mxCell>
        <mxCell id="49n-CD0r1zN0ge3w9h3Q-4" value="Feign客户端" style="text;html=1;resizable=0;points=[];autosize=1;align=left;verticalAlign=top;spacingTop=-4;fontSize=14;" parent="1" vertex="1">
          <mxGeometry x="270" y="230" width="80" height="10" as="geometry"/>
        </mxCell>
        <mxCell id="49n-CD0r1zN0ge3w9h3Q-7" value="生产者" style="text;html=1;strokeColor=none;fillColor=none;align=center;verticalAlign=middle;whiteSpace=wrap;rounded=0;fontSize=14;" parent="1" vertex="1">
          <mxGeometry x="420" y="190" width="60" height="20" as="geometry"/>
        </mxCell>
        <mxCell id="49n-CD0r1zN0ge3w9h3Q-8" value="生产者" style="text;html=1;strokeColor=none;fillColor=none;align=center;verticalAlign=middle;whiteSpace=wrap;rounded=0;fontSize=14;" parent="1" vertex="1">
          <mxGeometry x="120" y="190" width="60" height="20" as="geometry"/>
        </mxCell>
      </root>
    </mxGraphModel>
  </diagram>
  <diagram id="3OsuSTzHf1H4Z_fMaEEf" name="方位词">
    <mxGraphModel dx="1209" dy="1798" grid="1" gridSize="10" guides="1" tooltips="1" connect="1" arrows="1" fold="1" page="1" pageScale="1" pageWidth="827" pageHeight="1169" math="0" shadow="0">
      <root>
        <mxCell id="kZ94jOPlT2Hzj6hCEYqv-0"/>
        <mxCell id="kZ94jOPlT2Hzj6hCEYqv-1" parent="kZ94jOPlT2Hzj6hCEYqv-0"/>
        <mxCell id="kZ94jOPlT2Hzj6hCEYqv-2" value="" style="rounded=0;whiteSpace=wrap;html=1;fontSize=20;" vertex="1" parent="kZ94jOPlT2Hzj6hCEYqv-1">
          <mxGeometry x="80" y="200" width="680" height="60" as="geometry"/>
        </mxCell>
        <mxCell id="kZ94jOPlT2Hzj6hCEYqv-3" value="" style="ellipse;whiteSpace=wrap;html=1;aspect=fixed;fontSize=20;" vertex="1" parent="kZ94jOPlT2Hzj6hCEYqv-1">
          <mxGeometry x="150" y="120" width="80" height="80" as="geometry"/>
        </mxCell>
        <mxCell id="kZ94jOPlT2Hzj6hCEYqv-4" value="" style="ellipse;whiteSpace=wrap;html=1;aspect=fixed;fontSize=20;" vertex="1" parent="kZ94jOPlT2Hzj6hCEYqv-1">
          <mxGeometry x="150" y="260" width="80" height="80" as="geometry"/>
        </mxCell>
        <mxCell id="kZ94jOPlT2Hzj6hCEYqv-5" value="" style="ellipse;whiteSpace=wrap;html=1;aspect=fixed;fontSize=20;" vertex="1" parent="kZ94jOPlT2Hzj6hCEYqv-1">
          <mxGeometry x="330" y="50" width="80" height="80" as="geometry"/>
        </mxCell>
        <mxCell id="kZ94jOPlT2Hzj6hCEYqv-6" value="" style="ellipse;whiteSpace=wrap;html=1;aspect=fixed;fontSize=20;" vertex="1" parent="kZ94jOPlT2Hzj6hCEYqv-1">
          <mxGeometry x="330" y="330" width="80" height="80" as="geometry"/>
        </mxCell>
        <mxCell id="kZ94jOPlT2Hzj6hCEYqv-7" value="" style="ellipse;whiteSpace=wrap;html=1;aspect=fixed;fontSize=20;" vertex="1" parent="kZ94jOPlT2Hzj6hCEYqv-1">
          <mxGeometry x="580" y="20" width="80" height="80" as="geometry"/>
        </mxCell>
        <mxCell id="kZ94jOPlT2Hzj6hCEYqv-8" value="" style="ellipse;whiteSpace=wrap;html=1;aspect=fixed;fontSize=20;" vertex="1" parent="kZ94jOPlT2Hzj6hCEYqv-1">
          <mxGeometry x="580" y="374.55" width="80" height="80" as="geometry"/>
        </mxCell>
        <mxCell id="kZ94jOPlT2Hzj6hCEYqv-9" value="on" style="text;html=1;strokeColor=none;fillColor=none;align=center;verticalAlign=middle;whiteSpace=wrap;rounded=0;fontSize=20;fontColor=#FF0080;" vertex="1" parent="kZ94jOPlT2Hzj6hCEYqv-1">
          <mxGeometry x="170" y="90" width="40" height="20" as="geometry"/>
        </mxCell>
        <mxCell id="kZ94jOPlT2Hzj6hCEYqv-10" value="beneath" style="text;html=1;strokeColor=none;fillColor=none;align=center;verticalAlign=middle;whiteSpace=wrap;rounded=0;fontSize=20;fontColor=#FF0080;" vertex="1" parent="kZ94jOPlT2Hzj6hCEYqv-1">
          <mxGeometry x="170" y="350" width="40" height="20" as="geometry"/>
        </mxCell>
        <mxCell id="kZ94jOPlT2Hzj6hCEYqv-11" value="over" style="text;html=1;strokeColor=none;fillColor=none;align=center;verticalAlign=middle;whiteSpace=wrap;rounded=0;fontSize=20;fontColor=#FF0080;" vertex="1" parent="kZ94jOPlT2Hzj6hCEYqv-1">
          <mxGeometry x="350" y="20" width="40" height="20" as="geometry"/>
        </mxCell>
        <mxCell id="kZ94jOPlT2Hzj6hCEYqv-12" value="under" style="text;html=1;strokeColor=none;fillColor=none;align=center;verticalAlign=middle;whiteSpace=wrap;rounded=0;fontSize=20;fontColor=#FF0080;" vertex="1" parent="kZ94jOPlT2Hzj6hCEYqv-1">
          <mxGeometry x="350" y="420" width="40" height="20" as="geometry"/>
        </mxCell>
        <mxCell id="kZ94jOPlT2Hzj6hCEYqv-13" value="above" style="text;html=1;strokeColor=none;fillColor=none;align=center;verticalAlign=middle;whiteSpace=wrap;rounded=0;fontSize=20;fontColor=#FF0080;" vertex="1" parent="kZ94jOPlT2Hzj6hCEYqv-1">
          <mxGeometry x="600" y="-10" width="40" height="20" as="geometry"/>
        </mxCell>
        <mxCell id="kZ94jOPlT2Hzj6hCEYqv-14" value="below" style="text;html=1;strokeColor=none;fillColor=none;align=center;verticalAlign=middle;whiteSpace=wrap;rounded=0;fontSize=20;fontColor=#FF0080;" vertex="1" parent="kZ94jOPlT2Hzj6hCEYqv-1">
          <mxGeometry x="600" y="465.44" width="40" height="20" as="geometry"/>
        </mxCell>
        <mxCell id="kZ94jOPlT2Hzj6hCEYqv-16" value="" style="endArrow=classic;html=1;fontSize=20;" edge="1" parent="kZ94jOPlT2Hzj6hCEYqv-1">
          <mxGeometry width="50" height="50" relative="1" as="geometry">
            <mxPoint x="620" y="190" as="sourcePoint"/>
            <mxPoint x="620" y="110" as="targetPoint"/>
          </mxGeometry>
        </mxCell>
        <mxCell id="kZ94jOPlT2Hzj6hCEYqv-17" value="" style="endArrow=classic;html=1;fontSize=20;" edge="1" parent="kZ94jOPlT2Hzj6hCEYqv-1">
          <mxGeometry width="50" height="50" relative="1" as="geometry">
            <mxPoint x="640" y="190" as="sourcePoint"/>
            <mxPoint x="680" y="140" as="targetPoint"/>
          </mxGeometry>
        </mxCell>
        <mxCell id="kZ94jOPlT2Hzj6hCEYqv-18" value="" style="endArrow=classic;html=1;fontSize=20;" edge="1" parent="kZ94jOPlT2Hzj6hCEYqv-1">
          <mxGeometry width="50" height="50" relative="1" as="geometry">
            <mxPoint x="600" y="190" as="sourcePoint"/>
            <mxPoint x="560" y="140" as="targetPoint"/>
          </mxGeometry>
        </mxCell>
        <mxCell id="kZ94jOPlT2Hzj6hCEYqv-19" value="" style="endArrow=classic;html=1;fontSize=20;" edge="1" parent="kZ94jOPlT2Hzj6hCEYqv-1">
          <mxGeometry width="50" height="50" relative="1" as="geometry">
            <mxPoint x="620" y="270" as="sourcePoint"/>
            <mxPoint x="620" y="350" as="targetPoint"/>
          </mxGeometry>
        </mxCell>
        <mxCell id="kZ94jOPlT2Hzj6hCEYqv-20" value="" style="endArrow=classic;html=1;fontSize=20;" edge="1" parent="kZ94jOPlT2Hzj6hCEYqv-1">
          <mxGeometry width="50" height="50" relative="1" as="geometry">
            <mxPoint x="640" y="270" as="sourcePoint"/>
            <mxPoint x="680" y="320" as="targetPoint"/>
          </mxGeometry>
        </mxCell>
        <mxCell id="kZ94jOPlT2Hzj6hCEYqv-21" value="" style="endArrow=classic;html=1;fontSize=20;" edge="1" parent="kZ94jOPlT2Hzj6hCEYqv-1">
          <mxGeometry width="50" height="50" relative="1" as="geometry">
            <mxPoint x="600" y="270" as="sourcePoint"/>
            <mxPoint x="560" y="320" as="targetPoint"/>
          </mxGeometry>
        </mxCell>
        <mxCell id="kZ94jOPlT2Hzj6hCEYqv-22" value="on&amp;nbsp; &amp;nbsp; &amp;nbsp; &amp;nbsp;在上方，有接触&lt;br&gt;over&amp;nbsp; &amp;nbsp; 正上方，没有接触&lt;br&gt;above 可以是正上方或斜上方，没有接触" style="text;html=1;strokeColor=none;fillColor=none;align=left;verticalAlign=middle;whiteSpace=wrap;rounded=0;fontSize=20;fontColor=#1F1F1F;" vertex="1" parent="kZ94jOPlT2Hzj6hCEYqv-1">
          <mxGeometry x="130" y="500" width="450" height="40" as="geometry"/>
        </mxCell>
        <mxCell id="kZ94jOPlT2Hzj6hCEYqv-29" value="" style="endArrow=none;html=1;fontSize=20;fontColor=#1F1F1F;" edge="1" parent="kZ94jOPlT2Hzj6hCEYqv-1">
          <mxGeometry width="50" height="50" relative="1" as="geometry">
            <mxPoint x="210" y="926" as="sourcePoint"/>
            <mxPoint x="210" y="776" as="targetPoint"/>
          </mxGeometry>
        </mxCell>
        <mxCell id="kZ94jOPlT2Hzj6hCEYqv-30" value="" style="endArrow=none;html=1;fontSize=20;fontColor=#1F1F1F;" edge="1" parent="kZ94jOPlT2Hzj6hCEYqv-1">
          <mxGeometry width="50" height="50" relative="1" as="geometry">
            <mxPoint x="320" y="866" as="sourcePoint"/>
            <mxPoint x="320" y="716" as="targetPoint"/>
          </mxGeometry>
        </mxCell>
        <mxCell id="kZ94jOPlT2Hzj6hCEYqv-31" value="" style="endArrow=none;html=1;fontSize=20;fontColor=#1F1F1F;" edge="1" parent="kZ94jOPlT2Hzj6hCEYqv-1">
          <mxGeometry width="50" height="50" relative="1" as="geometry">
            <mxPoint x="210" y="926" as="sourcePoint"/>
            <mxPoint x="320" y="866" as="targetPoint"/>
          </mxGeometry>
        </mxCell>
        <mxCell id="kZ94jOPlT2Hzj6hCEYqv-33" value="" style="endArrow=none;html=1;fontSize=20;fontColor=#1F1F1F;" edge="1" parent="kZ94jOPlT2Hzj6hCEYqv-1" source="kZ94jOPlT2Hzj6hCEYqv-41">
          <mxGeometry width="50" height="50" relative="1" as="geometry">
            <mxPoint x="370" y="926" as="sourcePoint"/>
            <mxPoint x="480" y="866" as="targetPoint"/>
          </mxGeometry>
        </mxCell>
        <mxCell id="kZ94jOPlT2Hzj6hCEYqv-34" value="" style="endArrow=none;html=1;fontSize=20;fontColor=#1F1F1F;" edge="1" parent="kZ94jOPlT2Hzj6hCEYqv-1">
          <mxGeometry width="50" height="50" relative="1" as="geometry">
            <mxPoint x="210" y="926" as="sourcePoint"/>
            <mxPoint x="370" y="926" as="targetPoint"/>
          </mxGeometry>
        </mxCell>
        <mxCell id="kZ94jOPlT2Hzj6hCEYqv-35" value="" style="endArrow=none;html=1;fontSize=20;fontColor=#1F1F1F;" edge="1" parent="kZ94jOPlT2Hzj6hCEYqv-1">
          <mxGeometry width="50" height="50" relative="1" as="geometry">
            <mxPoint x="320" y="866" as="sourcePoint"/>
            <mxPoint x="480" y="866" as="targetPoint"/>
          </mxGeometry>
        </mxCell>
        <mxCell id="kZ94jOPlT2Hzj6hCEYqv-36" value="" style="endArrow=none;html=1;fontSize=20;fontColor=#1F1F1F;" edge="1" parent="kZ94jOPlT2Hzj6hCEYqv-1">
          <mxGeometry width="50" height="50" relative="1" as="geometry">
            <mxPoint x="210" y="776" as="sourcePoint"/>
            <mxPoint x="320" y="716" as="targetPoint"/>
          </mxGeometry>
        </mxCell>
        <mxCell id="kZ94jOPlT2Hzj6hCEYqv-37" value="" style="endArrow=none;html=1;fontSize=20;fontColor=#1F1F1F;" edge="1" parent="kZ94jOPlT2Hzj6hCEYqv-1">
          <mxGeometry width="50" height="50" relative="1" as="geometry">
            <mxPoint x="140" y="836" as="sourcePoint"/>
            <mxPoint x="210" y="836" as="targetPoint"/>
          </mxGeometry>
        </mxCell>
        <mxCell id="kZ94jOPlT2Hzj6hCEYqv-38" value="" style="endArrow=classic;html=1;fontSize=20;fontColor=#1F1F1F;" edge="1" parent="kZ94jOPlT2Hzj6hCEYqv-1">
          <mxGeometry width="50" height="50" relative="1" as="geometry">
            <mxPoint x="260" y="836" as="sourcePoint"/>
            <mxPoint x="380" y="836" as="targetPoint"/>
          </mxGeometry>
        </mxCell>
        <mxCell id="kZ94jOPlT2Hzj6hCEYqv-39" value="through" style="text;html=1;strokeColor=none;fillColor=none;align=center;verticalAlign=middle;whiteSpace=wrap;rounded=0;fontSize=20;fontColor=#FF0080;" vertex="1" parent="kZ94jOPlT2Hzj6hCEYqv-1">
          <mxGeometry x="350" y="796" width="40" height="20" as="geometry"/>
        </mxCell>
        <mxCell id="kZ94jOPlT2Hzj6hCEYqv-40" value="" style="endArrow=classic;html=1;fontSize=20;fontColor=#1F1F1F;" edge="1" parent="kZ94jOPlT2Hzj6hCEYqv-1">
          <mxGeometry width="50" height="50" relative="1" as="geometry">
            <mxPoint x="450" y="846" as="sourcePoint"/>
            <mxPoint x="290" y="946" as="targetPoint"/>
          </mxGeometry>
        </mxCell>
        <mxCell id="kZ94jOPlT2Hzj6hCEYqv-41" value="across" style="text;html=1;strokeColor=none;fillColor=none;align=center;verticalAlign=middle;whiteSpace=wrap;rounded=0;fontSize=20;fontColor=#FF0080;" vertex="1" parent="kZ94jOPlT2Hzj6hCEYqv-1">
          <mxGeometry x="410" y="886" width="40" height="20" as="geometry"/>
        </mxCell>
        <mxCell id="kZ94jOPlT2Hzj6hCEYqv-42" value="" style="endArrow=none;html=1;fontSize=20;fontColor=#1F1F1F;" edge="1" parent="kZ94jOPlT2Hzj6hCEYqv-1" target="kZ94jOPlT2Hzj6hCEYqv-41">
          <mxGeometry width="50" height="50" relative="1" as="geometry">
            <mxPoint x="370" y="926" as="sourcePoint"/>
            <mxPoint x="480" y="866" as="targetPoint"/>
          </mxGeometry>
        </mxCell>
        <mxCell id="kZ94jOPlT2Hzj6hCEYqv-43" value="" style="endArrow=classic;html=1;fontSize=20;fontColor=#1F1F1F;" edge="1" parent="kZ94jOPlT2Hzj6hCEYqv-1">
          <mxGeometry width="50" height="50" relative="1" as="geometry">
            <mxPoint x="190" y="986" as="sourcePoint"/>
            <mxPoint x="390" y="986" as="targetPoint"/>
          </mxGeometry>
        </mxCell>
        <mxCell id="kZ94jOPlT2Hzj6hCEYqv-44" value="past" style="text;html=1;strokeColor=none;fillColor=none;align=center;verticalAlign=middle;whiteSpace=wrap;rounded=0;fontSize=20;fontColor=#FF0080;" vertex="1" parent="kZ94jOPlT2Hzj6hCEYqv-1">
          <mxGeometry x="270" y="996" width="40" height="20" as="geometry"/>
        </mxCell>
        <mxCell id="kZ94jOPlT2Hzj6hCEYqv-49" value="" style="endArrow=classic;html=1;fontSize=20;fontColor=#1F1F1F;" edge="1" parent="kZ94jOPlT2Hzj6hCEYqv-1">
          <mxGeometry width="50" height="50" relative="1" as="geometry">
            <mxPoint x="220" y="706" as="sourcePoint"/>
            <mxPoint x="410" y="706" as="targetPoint"/>
            <Array as="points">
              <mxPoint x="260" y="686"/>
              <mxPoint x="310" y="676"/>
              <mxPoint x="370" y="686"/>
            </Array>
          </mxGeometry>
        </mxCell>
        <mxCell id="kZ94jOPlT2Hzj6hCEYqv-50" value="over" style="text;html=1;strokeColor=none;fillColor=none;align=center;verticalAlign=middle;whiteSpace=wrap;rounded=0;fontSize=20;fontColor=#FF0080;" vertex="1" parent="kZ94jOPlT2Hzj6hCEYqv-1">
          <mxGeometry x="300" y="650" width="40" height="20" as="geometry"/>
        </mxCell>
        <mxCell id="kZ94jOPlT2Hzj6hCEYqv-51" value="across&amp;nbsp; &amp;nbsp; &amp;nbsp; 从表面穿过&lt;br&gt;through&amp;nbsp; &amp;nbsp; 从内部经过&lt;br&gt;over&amp;nbsp; &amp;nbsp; &amp;nbsp; &amp;nbsp; &amp;nbsp;从上方越过&lt;br&gt;past&amp;nbsp; &amp;nbsp; &amp;nbsp; &amp;nbsp; &amp;nbsp;从旁边经过" style="text;html=1;strokeColor=none;fillColor=none;align=left;verticalAlign=middle;whiteSpace=wrap;rounded=0;fontSize=20;fontColor=#1F1F1F;" vertex="1" parent="kZ94jOPlT2Hzj6hCEYqv-1">
          <mxGeometry x="130" y="1050" width="450" height="40" as="geometry"/>
        </mxCell>
      </root>
    </mxGraphModel>
  </diagram>
</mxfile>
